<svg width="280" height="280" viewBox="0 0 280 280" fill="none" xmlns="http://www.w3.org/2000/svg">
<path d="M130.396 53.175C133.966 53.3107 138.201 53.1397 141.857 53.16C145.291 53.179 149.77 53.3232 153.088 53.0962C152.568 76.2425 160.499 102.684 180.949 115.791C170.795 119.544 165.609 122.53 156.729 128.414C151.29 122.905 143.785 114.639 140.828 107.48C131.199 123.055 123.56 130.541 108.196 139.897C108.44 139.983 108.68 140.078 108.916 140.183C118.81 144.567 136.688 161.977 140.393 172.134C143.284 166.178 150.486 157.38 155.213 152.785C174.354 134.173 200.741 126.966 226.877 127.319L226.872 152.138C223.018 152.073 218.734 152.47 214.887 152.857C199.869 154.485 185.086 159.57 173.583 169.581C163.093 178.709 156.673 193.672 154.584 207.174C153.713 212.804 153.201 220.626 152.833 226.394C144.649 226.495 136.465 226.493 128.283 226.388C128.248 203.593 121.139 178.36 101.571 164.731C87.8788 155.194 70.3062 152.541 53.9604 152.089C54.1079 143.915 54.0235 135.49 54.0275 127.301C91.9064 127.306 121.822 109.823 126.753 70.3864C127.459 64.7446 127.636 59.2034 128.254 53.6461C128.928 53.1387 129.429 53.2637 130.396 53.175Z" fill="#8EE600"/>
<path opacity="0.5" d="M207.344 190.179C217.358 189.326 226.145 196.794 226.923 206.812C227.7 216.83 220.165 225.563 210.141 226.263C200.224 226.955 191.605 219.519 190.837 209.608C190.069 199.697 197.44 191.022 207.344 190.179Z" fill="#8EE600"/>
</svg>
