<svg width="258" height="164" viewBox="0 0 258 164" fill="none" xmlns="http://www.w3.org/2000/svg">
<path d="M115.6 28.3394C117.838 28.2746 120.48 27.9901 122.766 27.8495C124.914 27.7173 127.721 27.6197 129.786 27.3386C130.432 41.8338 136.5 58.0348 149.837 65.3735C143.645 68.1458 140.528 70.2305 135.222 74.2821C131.59 71.0656 126.55 66.2117 124.401 61.8592C119.033 72.0017 114.57 77.0033 105.356 83.4978C105.511 83.541 105.665 83.5908 105.817 83.6467C112.188 85.973 124.098 96.1099 126.84 102.306C128.398 98.4596 132.533 92.6566 135.295 89.5847C146.484 77.1442 162.681 71.5314 179.04 70.656L180.077 86.1752C177.664 86.2968 175.002 86.7241 172.613 87.1278C163.29 88.7754 154.26 92.5752 147.486 99.3172C141.31 105.465 137.923 115.091 137.183 123.621C136.874 127.178 136.883 132.09 136.894 135.713C131.781 136.119 126.664 136.461 121.542 136.739C120.565 122.486 115.062 107.006 102.254 99.3043C93.2924 93.9152 82.193 92.9928 71.9529 93.3956C71.7024 88.2786 71.2963 83.0139 70.9554 77.8927C94.6414 76.308 112.615 64.1212 114.044 39.2545C114.249 35.6971 114.127 32.2247 114.281 28.7238C114.681 28.3783 114.999 28.4354 115.6 28.3394Z" fill="#EBEBEB"/>
<path d="M65.3125 106.748V132.06H50.3125V106.748H0V90.1852L46.0938 27.9977H65.3125V93.3102H80.625V106.748H65.3125ZM50.3125 93.3102V45.4977L15.7812 93.3102H50.3125ZM242.231 106.748V132.06H227.231V106.748H176.919V90.1852L223.012 27.9977H242.231V93.3102H257.544V106.748H242.231ZM227.231 93.3102V45.4977L192.7 93.3102H227.231Z" fill="#8EE600"/>
</svg>
