<svg width="278" height="80" viewBox="0 0 278 80" fill="none" xmlns="http://www.w3.org/2000/svg">
<path d="M36.6665 11.8518C37.8277 11.896 39.2048 11.8404 40.3934 11.847C41.5101 11.8531 42.9667 11.9001 44.0455 11.8262C43.8764 19.3617 46.4553 27.9698 53.105 32.2372C49.8033 33.459 48.117 34.4312 45.2296 36.3467C43.4609 34.5533 41.0203 31.8623 40.059 29.5315C36.9277 34.602 34.4437 37.0393 29.448 40.0852C29.5273 40.113 29.6052 40.1442 29.6819 40.1785C32.8992 41.6057 38.7128 47.2737 39.9175 50.5803C40.8577 48.6412 43.1995 45.777 44.7365 44.2808C50.9606 38.2217 59.5408 35.8755 68.0398 35.9903L68.0379 44.0703C66.7848 44.0493 65.3916 44.1783 64.1409 44.3045C59.2573 44.8345 54.4504 46.49 50.7097 49.7492C47.2988 52.721 45.2113 57.5923 44.5319 61.988C44.2486 63.8208 44.0823 66.3673 43.9625 68.2453C41.3015 68.2782 38.6403 68.2775 35.9795 68.2433C35.9684 60.8223 33.6567 52.6072 27.2936 48.1702C22.8413 45.0653 17.1271 44.2015 11.812 44.0543C11.86 41.3933 11.8325 38.6505 11.8338 35.9843C24.1509 35.9862 33.8787 30.2943 35.4821 17.4552C35.7117 15.6184 35.7693 13.8144 35.9702 12.0052C36.1895 11.84 36.3521 11.8807 36.6665 11.8518Z" fill="#8EE600"/>
<path opacity="0.5" d="M61.688 56.4547C64.9441 56.1772 67.8015 58.6084 68.0544 61.8699C68.3071 65.1315 65.857 67.9745 62.5975 68.2024C59.3728 68.4279 56.5702 66.007 56.3205 62.7804C56.0708 59.5535 58.4672 56.7294 61.688 56.4547Z" fill="#8EE600"/>
<path d="M111.13 55H95.2893V28.9844H99.1518V51.3672H111.13V55ZM118.309 46.7187C118.309 48.5417 118.725 49.8699 119.557 50.7032C120.415 51.5104 121.547 51.914 122.951 51.914C124.33 51.914 125.474 51.4584 126.385 50.5469C127.321 49.6094 127.789 48.4115 127.789 46.9532V35H131.652V55H127.789V51.875C127.087 53.0469 126.164 53.9454 125.019 54.5704C123.901 55.1954 122.769 55.5079 121.625 55.5079C119.518 55.5079 117.788 54.8307 116.436 53.4765C115.083 52.0964 114.407 50.1172 114.407 47.539V35H118.309V46.7187ZM148.624 43.164C148.624 41.3672 148.221 40.0782 147.414 39.2969C146.634 38.4897 145.555 38.086 144.176 38.086C142.875 38.086 141.783 38.5417 140.899 39.4532C140.04 40.3385 139.611 41.4844 139.611 42.8907V55H135.71V35H139.611V37.9297C140.313 36.836 141.198 35.9897 142.264 35.3907C143.331 34.7917 144.423 34.4922 145.542 34.4922C147.024 34.4922 148.325 34.8699 149.443 35.625C150.588 36.3542 151.42 37.4349 151.94 38.8672C152.59 37.461 153.514 36.3802 154.71 35.625C155.933 34.8699 157.181 34.4922 158.456 34.4922C160.458 34.4922 162.11 35.1694 163.411 36.5235C164.737 37.8515 165.401 39.7917 165.401 42.3437V55H161.538V43.164C161.538 41.3672 161.135 40.0782 160.328 39.2969C159.548 38.4897 158.469 38.086 157.09 38.086C155.79 38.086 154.697 38.5417 153.813 39.4532C152.929 40.3385 152.486 41.4844 152.486 42.8907V55H148.624V43.164ZM186.391 41.875V55H182.489V51.6407C181.787 52.8125 180.838 53.737 179.641 54.414C178.471 55.0912 177.157 55.4297 175.701 55.4297C174.401 55.4297 173.255 55.1824 172.267 54.6875C171.28 54.1667 170.499 53.4505 169.926 52.539C169.354 51.6015 169.067 50.5469 169.067 49.375C169.067 47.6824 169.575 46.3412 170.59 45.3515C171.604 44.362 173.061 43.8152 174.96 43.711L180.344 43.3204C181.124 43.2682 181.67 43.099 181.982 42.8125C182.32 42.526 182.489 42.0834 182.489 41.4844V41.4064C182.489 40.3385 182.06 39.4402 181.203 38.711C180.344 37.9557 179.29 37.5782 178.041 37.5782C175.128 37.5782 173.528 38.8282 173.242 41.3282H169.224C169.353 39.2709 170.212 37.6302 171.799 36.4064C173.412 35.1564 175.479 34.5314 178.003 34.5314C179.641 34.5314 181.084 34.8437 182.333 35.4687C183.608 36.0937 184.597 36.9662 185.298 38.086C186.027 39.1797 186.391 40.4427 186.391 41.875ZM173.009 49.2187C173.009 50.1564 173.36 50.8985 174.061 51.4454C174.79 51.9922 175.766 52.2657 176.988 52.2657C178.028 52.2657 178.965 52.0314 179.798 51.5625C180.63 51.0677 181.279 50.4037 181.749 49.5704C182.243 48.737 182.489 47.7865 182.489 46.7187V46.0547L176.325 46.4454C174.114 46.6015 173.009 47.526 173.009 49.2187ZM201.295 43.8282H194.623L192.672 55H190.643L195.247 28.9844H205.508C207.641 28.9844 209.319 29.5574 210.542 30.7032C211.764 31.849 212.375 33.4245 212.375 35.4297C212.375 37.461 211.738 39.1927 210.464 40.625C209.189 42.0574 207.538 42.9427 205.508 43.2814C206.913 43.5677 207.902 44.1537 208.473 45.039C209.073 45.9245 209.371 47.2005 209.371 48.8672V55H207.343V49.1407C207.343 47.1875 206.887 45.8204 205.976 45.039C205.092 44.2319 203.533 43.8282 201.295 43.8282ZM205.157 30.9375H196.885L194.974 41.914H203.246C205.352 41.914 207.043 41.302 208.318 40.0782C209.592 38.8542 210.229 37.2397 210.229 35.2344C210.229 33.8542 209.787 32.7995 208.903 32.0704C208.019 31.3152 206.77 30.9375 205.157 30.9375ZM230.946 41.875L228.606 55H226.498L227.046 52.0314C226.135 53.073 225.068 53.8932 223.846 54.4922C222.623 55.0652 221.323 55.3515 219.944 55.3515C218.045 55.3515 216.499 54.8699 215.302 53.9064C214.131 52.9167 213.546 51.6277 213.546 50.039C213.546 48.3204 214.145 46.888 215.34 45.7422C216.537 44.5964 218.15 43.9844 220.179 43.9064L226.031 43.711C226.941 43.6849 227.592 43.5807 227.982 43.3985C228.398 43.1902 228.684 42.8255 228.84 42.3047L228.919 41.875C229.205 40.3125 228.801 39.0365 227.709 38.0469C226.641 37.0574 225.185 36.5625 223.339 36.5625C220.218 36.5625 218.228 37.8907 217.369 40.5469H215.145C215.613 38.698 216.589 37.2527 218.072 36.211C219.58 35.1432 221.401 34.6094 223.534 34.6094C225.173 34.6094 226.59 34.9349 227.787 35.586C228.984 36.211 229.868 37.0704 230.44 38.164C231.011 39.2579 231.181 40.4949 230.946 41.875ZM215.653 49.8047C215.653 50.8724 216.069 51.7449 216.901 52.4219C217.759 53.073 218.877 53.3985 220.256 53.3985C222.077 53.3985 223.69 52.8515 225.095 51.7579C226.498 50.638 227.436 49.1927 227.903 47.4219L228.216 45.664L220.452 45.8985C218.839 45.9245 217.629 46.302 216.823 47.0314C216.043 47.7604 215.653 48.6849 215.653 49.8047ZM241.715 53.086L241.364 55H239.686C239.037 55 238.412 54.8569 237.813 54.5704C237.242 54.2839 236.799 53.802 236.486 53.125C236.202 52.4219 236.162 51.4714 236.37 50.2735L238.71 36.914H234.888L235.238 35H239.062L239.959 29.8047H242.028L241.091 35H244.876L244.563 36.914H240.78L238.437 50.039C238.229 51.263 238.294 52.0834 238.634 52.5C238.972 52.8907 239.453 53.086 240.077 53.086H241.715ZM245.577 46.7187C245.577 44.5052 245.982 42.487 246.787 40.664C247.62 38.8412 248.79 37.3829 250.298 36.289C251.808 35.1694 253.589 34.6094 255.643 34.6094C257.621 34.6094 259.259 35.0782 260.559 36.0157C261.886 36.927 262.836 38.138 263.407 39.6485C263.98 41.1329 264.11 42.7604 263.799 44.5314L263.604 45.7032H247.685C247.658 46.0677 247.646 46.4454 247.646 46.836C247.646 48.9714 248.217 50.599 249.363 51.7187C250.533 52.8125 252.224 53.3594 254.435 53.3594C255.995 53.3594 257.321 52.9819 258.413 52.2265C259.507 51.4454 260.339 50.3515 260.91 48.9454H263.253C262.445 51.0287 261.275 52.6172 259.74 53.711C258.232 54.8047 256.437 55.3515 254.357 55.3515C251.651 55.3515 249.506 54.5834 247.919 53.0469C246.358 51.5104 245.577 49.401 245.577 46.7187ZM255.8 36.6015C253.797 36.6015 252.094 37.2527 250.689 38.5547C249.311 39.8307 248.4 41.5755 247.958 43.789H261.808C262.042 42.3569 261.926 41.1069 261.456 40.039C260.989 38.9714 260.261 38.138 259.272 37.539C258.31 36.914 257.153 36.6015 255.8 36.6015Z" fill="white"/>
</svg>
